<svg width="256" height="32" version="1.1" viewBox="0 0 256 32" xmlns="http://www.w3.org/2000/svg" xmlns:xlink="http://www.w3.org/1999/xlink">
<style>
	use:not(:target) {
	  display: none;
	}
	use {
	  fill: #595959;
	}
	use[id$="-ac"] {
	  fill: #4285F4;
	}
</style>
<defs>
    <g id="toolbar-image">
        <path d="m16 21.6c-3.1795 0-5.7571-2.5072-5.7571-5.6 0-3.0926 2.5775-5.5999 5.7571-5.5999 3.1795 0 5.757 2.5073 5.757 5.5999 0 3.0928-2.5775 5.6-5.757 5.6zm12.22-4.0382c.06908-.5136.11514-1.0322.11514-1.5618 0-.52944-.04606-1.048-.11514-1.5616l3.4756-2.6463c.30924-.24317.3997-.6752.19409-1.0208l-3.2897-5.5424c-.20396-.3456-.63492-.48642-1.0067-.34717l-4.0941 1.6048c-.84875-.63359-1.7781-1.1696-2.7798-1.5729l-.61683-4.2399c-.062504-.38086-.40299-.67363-.81256-.67363h-6.5795c-.41122 0-.75004.29277-.81255.67363l-.61682 4.2384c-1.0034.40478-1.9328.94083-2.7815 1.5744l-4.0924-1.6048c-.37172-.13925-.80271.001568-1.0067.34717l-3.2897 5.5424c-.20561.3456-.11516.77763.19411 1.0208l3.474 2.6463c-.069084.512-.11516 1.0322-.11516 1.5616 0 .5296.046073 1.0498.11516 1.5618l-3.474 2.6448c-.30927.24464-.39972.67664-.19411 1.0224l3.2897 5.5423c.20395.3456.63494.48656 1.0067.3472l4.0941-1.6048c.84874.6336 1.7781 1.1696 2.7798 1.573l.61682 4.2398c.062505.38096.40133.6736.81255.6736h6.5795c.40957 0 .75006-.29264.81256-.6736l.61683-4.2398c1.0001-.4048 1.9294-.93936 2.7782-1.5744l4.0957 1.6062c.37174.13936.8027-.0016 1.0067-.3472l3.2897-5.5423c.20561-.34576.11514-.77776-.19409-1.0224z"/>
        <path d="m60.445 28.444-24.889.0037v-24.893h12.444v7.1111h12.444m0-10.667h-24.889c-1.9627 0-3.5556 1.5929-3.5556 3.5556v24.889c0 1.9628 1.5929 3.5556 3.5556 3.5556h24.889c1.9627 0 3.5556-1.5927 3.5556-3.5556v-24.889c0-1.9627-1.5929-3.5556-3.5556-3.5556z"/>
        <path d="m67.556 1.81e-5h24.889c1.9637 0 3.5556 1.5919 3.5556 3.5556v24.889c0 1.9637-1.5918 3.5556-3.5556 3.5556h-24.889c-1.9637 0-3.5556-1.5918-3.5556-3.5556v-24.889c0-1.9637 1.5919-3.5556 3.5556-3.5556zm3.5556 7.1111v3.5556h17.778v-3.5556zm0 7.1111v3.5556h17.778v-3.5556zm0 7.1111v3.5556h12.444v-3.5556z"/>
        <path d="m96 7.9995 7.9995.0006601-.00065-7.9995 24.001-.00064v24h-8.0002l6e-4 7.9996h-24zm24-.00032-6e-4 12.001h3.9997v-16l-16.001.00064.00067 3.9991zm-20.001 8.0003v12l16 6e-4 2e-4-12.001z"/>
        <path d="m143.76 11.114 4.5789 4.5788c.004-.08131.0247-.15709.0247-.24 0-2.41-1.9534-4.3636-4.3636-4.3636-.0829 0-.15855.02033-.24.02477zm-6.2633 1.1432 2.2502 2.2487c-.0684.3056-.11055.62109-.11055.94691 0 2.4102 1.9535 4.3636 4.3636 4.3636.32728 0 .64291-.04204.94691-.10909l2.2502 2.2489c-.96872.47709-2.0451.76931-3.1971.76931-4.016 0-7.2727-3.2551-7.2727-7.2727 0-1.152.29235-2.2269.76944-3.1956zm-8.0422-8.0436 3.3149 3.3163.66184.66185c-2.4 1.8793-4.2953 4.3781-5.4313 7.261 2.5134 6.384 8.7244 10.909 16 10.909 2.2545 0 4.4058-.43622 6.3767-1.2246l.61673.61513 4.2458 4.2473 1.8516-1.8515-25.785-25.785m12.694 5.8168c4.016 0 7.2727 3.2568 7.2727 7.2727 0 .93964-.192 1.8314-.51636 2.656l4.2502 4.2502c2.1934-1.8342 3.9287-4.2007 4.9934-6.9062-2.5134-6.3839-8.7229-10.909-16-10.909-2.0364 0-3.984.36506-5.7949 1.0153l3.1389 3.1389c.82473-.32439 1.7164-.51785 2.656-.51785z"/>
        <path d="m176.09 15.985h10.182c-.76947 5.9913-4.7651 11.332-10.182 12.998v-12.983h-10.182v-8.291l10.182-4.5251m0-3.184-13.091 5.8182v8.7273c0 8.0771 5.5797 15.616 13.091 17.455 7.5099-1.8385 13.091-9.3774 13.091-17.455v-8.7273z"/>
        <path d="m192 1.7h32v16h-6.4v12.8h-3.2v-12.8h-12.8v12.8h-3.2v-12.8h-6.4zm27.16 12.8 1.6402-1.6402v-4.5255l-6.1658 6.1657zm-9.051 0 9.6-9.6h-4.5254l-9.6 9.6zm-9.0509 0 9.6-9.6-4.5256-1.6e-5-9.5999 9.6zm-3.9765-9.6-1.8814 1.8814v4.5255l6.4069-6.4069z"/>
		<path d="m 240.63636,24.727273 c -4.81454,0 -8.72727,-3.912727 -8.72727,-8.727273 0,-1.469091 0.36364,-2.865454 1.01818,-4.072727 L 230.80364,9.803637 C 229.66909,11.592727 229,13.716364 229,16 c 0,6.429091 5.20727,11.636364 11.63636,11.636364 V 32 l 5.81819,-5.818182 -5.81819,-5.818181 m 0,-16.0000003 V -2.8e-7 l -5.81818,5.81818238 5.81818,5.8181819 V 7.2727275 c 4.81455,0 8.72728,3.9127275 8.72728,8.7272725 0,1.469091 -0.36364,2.865455 -1.01819,4.072728 l 2.12364,2.123636 c 1.13455,-1.789091 1.80364,-3.912727 1.80364,-6.196364 0,-6.4290907 -5.20728,-11.6363633 -11.63637,-11.6363633 z"/>
    </g>
</defs>
    <use id="state"    xlink:href="#toolbar-image"/>
    <use id="state-ac" xlink:href="#toolbar-image"/>
</svg>
