<svg xmlns="http://www.w3.org/2000/svg" xmlns:xlink="http://www.w3.org/1999/xlink" 
	 width="18" height="18" viewBox="0 0 24 24">
    <style>
		use:not(:target) {
		  display: none;
		}
		use {
		  fill: #595959;
		}
		use[id$="-ac"] {
		  fill: #4285F4;
		}
	</style>
	<defs>
		<path id="discover-shape" d="M 9.6000009,0 C 8.2680004,0 7.2000006,1.1242106 7.2000006,2.5263159 l 0,2.5263158 -7.200000566666665,0 0,16.4210523 C 3.3333333e-8,22.875789 1.0680001,24 2.4000002,24 l 19.2000008,0 c 1.332,0 2.4,-1.124211 2.4,-2.526316 l 0,-16.4210523 -7.200002,0 0,-2.5263158 C 16.799999,1.1242106 15.732,0 14.4,0 L 9.6000009,0 Z m 0,2.5263159 4.7999991,0 0,2.5263158 -4.7999991,0 0,-2.5263158 z M 11.475,8.2532897 c 0.693945,0 1.25625,0.5919063 1.25625,1.3223689 l 0,0.7927624 2.012502,0 c 0.553148,0 1.006248,0.476947 1.006248,1.059211 l 0,2.118421 0.753125,0 c 0.693939,0 1.256249,0.591908 1.256249,1.322368 0,0.730462 -0.56231,1.325658 -1.256249,1.325658 l -0.753125,0 0,2.115132 c 0,0.582245 -0.4531,1.05921 -1.006248,1.05921 l -1.912502,0 0,-0.792763 c 0,-0.788714 -0.606993,-1.43092 -1.35625,-1.43092 -0.749257,0 -1.359374,0.642206 -1.359374,1.43092 l 0,0.792763 -1.9093757,0 c -0.5531437,0 -1.0062497,-0.476965 -1.0062497,-1.05921 l 0,-2.009869 0.7531244,0 c 0.7492587,0 1.3593766,-0.642209 1.3593766,-1.430921 0,-0.788677 -0.6101179,-1.427631 -1.3593766,-1.427631 l -0.7468749,0 0,-2.013158 c 0,-0.582264 0.4468565,-1.059211 1.0000002,-1.059211 l 2.0093757,0 0,-0.7927624 c 0,-0.7304626 0.565433,-1.3223689 1.259374,-1.3223689 z" />
	</defs>
    <use id="state" xlink:href="#discover-shape"/>
    <use id="state-ac" xlink:href="#discover-shape"/>
</svg>