<svg xmlns="http://www.w3.org/2000/svg" xmlns:xlink="http://www.w3.org/1999/xlink" 
	 width="18" height="18" viewBox="0 0 4.7625 4.7625">
    <style>
		use:not(:target) {
		  display: none;
		}
		use {
		  fill: #595959;
		}
		use[id$="-ac"] {
		  fill: #4285F4;
		}
	</style>
	<defs>
		<path id="style-shape"
			  d="M 0,0 V 4.7625 H 4.7625 V 0 Z m 0.4,0.3645 h 3.998 v 4.033 H 0.4 Z m 2.001349,0.09901 c -0.3149683,0 -0.5757947,0.0968 -0.7824927,0.29041 C 1.4154392,0.94420999 1.3136801,1.16729 1.3136801,1.4232 c 0,0.25263 0.082064,0.45943 0.2461098,0.6202 0.167327,0.15748 0.4100993,0.28701 0.7283485,0.38871 0.3084065,0.0919 0.5331248,0.19363 0.6742043,0.30518 0.1443607,0.1082701 0.2165768,0.25913 0.2165768,0.4527 0,0.1902999 -0.072216,0.3380099 -0.2165768,0.443 C 2.8212632,3.7379802 2.650707,3.79037 2.4505709,3.79037 2.2537157,3.79037 2.0764579,3.72317 1.9189737,3.5886901 1.7647704,3.4509001 1.663148,3.28349 1.6139342,3.08663 L 1.1906251,3.25891 c 0.075461,0.3084001 0.2378109,0.5478901 0.4871609,0.7185001 0.2526309,0.1706099 0.5183811,0.25595 0.7972592,0.25595 0.2821595,0 0.5431222,-0.0821 0.7826297,-0.2461102 C 3.3757878,3.9085499 3.4708452,3.80033 3.5430254,3.66253 3.6152054,3.52473 3.651314,3.3688099 3.651314,3.1949199 3.651314,3.0177499 3.62013,2.86361 3.557792,2.7323701 3.4954538,2.59785 3.4035426,2.48624 3.2821486,2.39766 3.1607546,2.30906 3.0394368,2.2385 2.9180428,2.186 2.7999296,2.1302 2.6392213,2.06964 2.4358041,2.00402 2.2356679,1.93842 2.0764642,1.85962 1.9583509,1.76775 1.8435188,1.67585 1.786074,1.55936 1.786074,1.41828 c 0,-0.14108 0.06401,-0.26076 0.1919657,-0.35919 0.127956,-0.0984 0.2822359,-0.14766001 0.4626865,-0.14766001 0.1837316,0 0.3345924,0.0492 0.4527055,0.14766001 0.121394,0.0951 0.1968929,0.20006 0.2264209,0.31489 L 3.5430251,1.19692 C 3.4839682,1.01647 3.3577268,0.84904999 3.1641526,0.69484999 2.9738595,0.54065 2.7195981,0.46350999 2.401349,0.46350999 Z"/>
	</defs>
    <use id="state" xlink:href="#style-shape"/>
    <use id="state-ac" xlink:href="#style-shape"/>
</svg>