<svg xmlns="http://www.w3.org/2000/svg" xmlns:xlink="http://www.w3.org/1999/xlink" 
	 width="18" height="18" viewBox="0 0 24 24">
    <style>
		use:not(:target) {
		  display: none;
		}
		use {
		  fill: #595959;
		}
		use[id$="-ac"] {
		  fill: #4285F4;
		}
	</style>
	<defs>
		<path id="plgin-shape" d="m 1.3499999e-6,16.687499 0,-8.4374995 1.4999999500001,0 0,-6.75 2.9999999,0 2.9999996,0 0,6.75 1.5,0 -1.1e-6,-6.75 2.9999993,0 3,0 10e-7,6.75 1.5,0 0,-6.75 3,0 3,0 0,6.75 1.5,0 c 0,0 0,6.8390995 0,8.4374995 l 0,5.8125 -12.000001,0 -11.999999,0 z M 7.5000008,14.999999 l 0,-4.499999 -2.2499996,0 -2.25,0 0,4.499999 0,4.5 2.25,0 2.2499996,0 z m 7.4999992,3 0,-1.5 -2.25,0 -2.249999,0 0,1.5 0,1.5 2.249999,0 2.25,0 z m 6,-1.5 -3,0 0,3 3,0 z m -6,-4.5 0,-1.499999 -2.25,0 -2.249999,0 0,1.499999 0,1.5 2.249999,0 2.25,0 z m 6,1.5 0,-2.999999 -3,0 0,2.999999 z"/>
	</defs>
    <use id="state" xlink:href="#plgin-shape"/>
    <use id="state-ac" xlink:href="#plgin-shape"/>
</svg>
