<svg xmlns="http://www.w3.org/2000/svg" xmlns:xlink="http://www.w3.org/1999/xlink" 
	 width="16" height="16" viewBox="0 0 24 24">
	<style>
		use:not(:target) {
		  display: none;
		}
		use {
		  fill: #595959;
		}
		use[id$="-ac"] {
		  fill: #4285F4;
		}	
	</style>
	<defs>
		<path id="check-mm-shape" d="m 12,21.600018 c -5.3016,0 -9.6,-4.2984 -9.6,-9.6 0,-5.301636 4.2984,-9.600036 9.6,-9.600036 5.3016,0 9.6,4.2984 9.6,9.600036 0,5.3016 -4.2984,9.6 -9.6,9.6 z M 12,-1.8e-5 c -6.6276,0 -12,5.3724 -12,12.000036 0,6.6276 5.3724,12 12,12 6.6276,0 12,-5.3724 12,-12 C 24,5.372382 18.6276,-1.8e-5 12,-1.8e-5 Z m 0,6 c -3.3144,0 -6,2.6856 -6,6.000036 0,3.3144 2.6856,6 6,6 3.3132,0 6,-2.6856 6,-6 0,-3.314436 -2.6868,-6.000036 -6,-6.000036 z"/>
	</defs>
    <use id="state" xlink:href="#check-mm-shape"/>
    <use id="state-ac" xlink:href="#check-mm-shape"/>
</svg>