<svg width="64" height="16" version="1.1" viewBox="0 0 64 16" xmlns="http://www.w3.org/2000/svg" xmlns:xlink="http://www.w3.org/1999/xlink">
	<style>
		use:not(:target) {
		  display: none;
		}
		use {
		  fill: #595959;
		}
		use[id$="-ic"] {
		  fill: #cecece;
		}
	</style>
	<defs>
		<g id="close">
			<path d="M 13,4.0071667 11.992833,3 8,6.9928333 4.0071667,3 3,4.0071667 6.9928333,8 3,11.992833 4.0071667,13 8,9.007167 11.992833,13 13,11.992833 9.0071667,8 Z"/>
			<g id="close-hover">
				<path d="m24 0c-4.424 0-8 3.576-8 8s3.576 8 8 8 8-3.576 8-8-3.576-8-8-8z" fill="#db4437"/>
				<path d="M 29,4.0071667 27.992833,3 24,6.9928333 20.007167,3 19,4.0071667 22.992833,8 19,11.992833 20.007167,13 24,9.007167 27.992833,13 29,11.992833 25.007167,8 Z" fill="#fff"/>
			</g>
			<g id="close-active">
				<path d="m40 0c-4.424 0-8 3.576-8 8s3.576 8 8 8 8-3.576 8-8-3.576-8-8-8z" fill="#a8352a"/>
				<path d="M 45,4.0071667 43.992833,3 40,6.9928333 36.007167,3 35,4.0071667 38.992833,8 35,11.992833 36.007167,13 40,9.007167 43.992833,13 45,11.992833 41.007167,8 Z" fill="#fff"/>
			</g>
			<path d="M 61,4.0071667 59.992833,3 56,6.9928333 52.007167,3 51,4.0071667 54.992833,8 51,11.992833 52.007167,13 56,9.007167 59.992833,13 61,11.992833 57.007167,8 Z"/>
		</g>
	</defs>
    <use id="state" xlink:href="#close"/>
    <use id="state-ic" xlink:href="#close"/>
</svg>
