<svg xmlns="http://www.w3.org/2000/svg" xmlns:xlink="http://www.w3.org/1999/xlink"
	 width="18" height="18" viewBox="0 0 18 18">
	<style>
		use:not(:target) {
		  display: none;
		}
		use {
		  fill: #595959;
		}
		use[id$="-ic"] {
		  fill: #cecece;
		}
		use[id$="-wt"] {
		  fill: #fff;
		}
	</style>
	<defs>
		<path id="search-shape" d="m 6.9428572,1 c 3.2821948,0 5.9428578,2.6607085 5.9428578,5.9428572 0,1.47648 -0.538515,2.8272458 -1.42976,3.8666058 l 0.24768,0.24768 h 0.724937 L 17,15.628572 15.628572,17 11.057143,12.428572 v -0.724937 l -0.24768,-0.24768 C 9.7701031,12.3472 8.4193369,12.885715 6.9428572,12.885715 3.6607085,12.885715 1,10.225052 1,6.9428572 1,3.6607085 3.6607085,1 6.9428572,1 Z m 0,1.8285805 c -2.272256,0 -4.1142857,1.8420298 -4.1142857,4.1142858 0,2.2722647 1.8420297,4.1142767 4.1142857,4.1142767 2.2722744,0 4.1142858,-1.842012 4.1142858,-4.1142767 0,-2.272256 -1.8420114,-4.1142858 -4.1142858,-4.1142858 z"/>
	</defs>
    <use id="state" xlink:href="#search-shape"/>
    <use id="state-ic" xlink:href="#search-shape"/>
	<use id="state-wt" xlink:href="#search-shape"/>
</svg>