<svg xmlns="http://www.w3.org/2000/svg" xmlns:xlink="http://www.w3.org/1999/xlink" 
	 width="64" height="64" viewBox="0 0 64 64">
	<style>
		use:not(:target) {
		  display: none;
		}
		use {
		  fill: #a2a2a2;
		}
		use[id$="-dm"] {
		  fill: #2e8bd0;
		}
		use[id$="-om"] {
		  fill: #5ca200;
		}
	</style>
	<defs>
		<path id="identity-shape" d="M 0,0 H 64 V 64 H 0 Z m 58.192471,27.372811 c 0,0 -0.744099,-2.462023 -3.170715,-2.750959 L 36.394658,47.478995 h 15.198526 v 3.42857 H 32.164612 v 8.57143 H 58.192471 Z M 50.450285,24.621852 H 29.878899 l -6.857143,9.142856 -8.985144,-5.6664 c -0.973561,-0.613965 -2.580592,-0.355748 -3.426777,0.42448 -0.882845,0.814023 -1.606,1.967898 -0.730936,3.527635 l 15.42857,9.714285 6.857143,-9.142856 V 47.478995 Z M 20.736041,20.050423 V 5.1932777 H 7.0217557 V 20.050423 l 9.1428563,5.714285 V 20.050423 Z M 16.164612,9.7647061 9.307469,7.478992 h 9.142858 V 17.99328 H 16.164612 Z M 45.878899,22.336137 c 2.198536,-1.056675 4.571428,-2.943326 4.571428,-5.714285 v -5.477615 c -4.867296,-0.04698 -9.990821,0.04011 -14.857143,0.118686 l -5.714285,5.358929 h 5.714285 c 0,0 2.372893,4.65761 4.571428,5.714285 1.716768,0.82512 3.997519,0.82512 5.714287,0 z M 50.450327,8.6218496 V 4.0504205 H 29.878899 l 5.714285,4.5714291 z" />
	</defs>
    <use id="state" xlink:href="#identity-shape"/>
    <use id="state-dm" xlink:href="#identity-shape"/>
    <use id="state-om" xlink:href="#identity-shape"/>
</svg>