<svg xmlns="http://www.w3.org/2000/svg" xmlns:xlink="http://www.w3.org/1999/xlink" 
	 width="18" height="18" viewBox="0 0 18 18">
	<style>
		use:not(:target) {
		  display: none;
		}
		use {
		  fill: #595959;
		}
		use[id$="-ic"] {
		  fill: #cecece;
		}
	</style>
	<defs>
		<path id="info-shape" d="M 8.2000043,6.6000211 H 9.800004 V 5.0000219 H 8.2000043 M 9.000004,15.399977 c -3.5288143,0 -6.4000048,-2.871119 -6.4000048,-6.399997 0,-3.5287663 2.8711905,-6.3999568 6.4000048,-6.3999568 3.528798,0 6.399997,2.8711905 6.399997,6.3999568 0,3.528878 -2.871199,6.399997 -6.399997,6.399997 z m 0,-14.399953 C 4.5815902,1.000024 1,4.5816142 1,8.99998 1,13.418458 4.5815902,16.999976 9.000004,16.999976 13.418402,16.999976 17,13.418458 17,8.99998 17,4.5816142 13.418402,1.000024 9.000004,1.000024 Z M 8.2000043,12.999978 H 9.800004 V 8.1999803 H 8.2000043 Z"/>
	</defs>
    <use id="state" xlink:href="#info-shape"/>
    <use id="state-ic" xlink:href="#info-shape"/>
</svg>