<svg width="16" height="16" viewBox="0 0 16 16" xmlns="http://www.w3.org/2000/svg" xmlns:xlink="http://www.w3.org/1999/xlink">
	<style>
		use:not(:target) {
		  display: none;
		}
		use {
		  fill: #595959;
		}
		use[id$="-ic"] {
		  fill: #cecece;
		}
	</style>
	<defs>
		<path id="info" d="M 1.7773438 0.021484375 C 0.79067707 0.021484375 -5.9086792e-009 0.82300426 0 1.8007812 L 0 14.210938 C 5.9086895e-009 15.188715 0.79067705 15.988281 1.7773438 15.988281 L 8 15.988281 L 8 15.193359 L 8 14.210938 L 1.7773438 14.210938 L 1.7773438 3.578125 L 14.222656 3.578125 L 14.222656 8 L 15.193359 8 L 16 8 L 16 1.8007812 C 16 0.82300426 15.209323 0.021484375 14.222656 0.021484375 L 1.7773438 0.021484375 z M 15.193359 8 L 12 11.193359 L 8.8066406 8 L 8 8.8066406 L 11.193359 12 L 8 15.193359 L 8.8066406 16 L 12 12.806641 L 15.193359 16 L 16 15.193359 L 12.806641 12 L 16 8.8066406 L 15.193359 8 z "/>
	</defs>
    <use id="state" xlink:href="#info"/>
    <use id="state-ic" xlink:href="#info"/>
</svg>
