<svg xmlns="http://www.w3.org/2000/svg" xmlns:xlink="http://www.w3.org/1999/xlink" 
	 width="16" height="16" viewBox="0 0 16 16">
	<style>
		use:not(:target) {
		  display: none;
		}
		use {
		  fill: #595959;
		}
		use[id$="-ic"] {
		  fill: #cecece;
		}
	</style>
	<defs>
		<path id="info-shape" d="m7 6h2v-2h-2m1 10c-3.53 0-6-2.47-6-6 0-3.53 2.47-6 6-6 3.53 0 6 2.47 6 6 0 3.53-2.47 6-6 6zm0-14c-4.42 0-8 3.58-8 8 0 4.42 3.58 8 8 8 4.42 0 8-3.58 8-8 0-4.42-3.58-8-8-8zm-1 12h2v-5h-2z"/>
	</defs>
    <use id="state" xlink:href="#info-shape"/>
    <use id="state-ic" xlink:href="#info-shape"/>
</svg>