<svg width="160" height="32" version="1.1" viewBox="0 0 160 32" xmlns="http://www.w3.org/2000/svg" xmlns:xlink="http://www.w3.org/1999/xlink">
<style>
	use:not(:target) {
	  display: none;
	}
	use {
	  fill: #595959;
	}
	use[id$="-ac"] {
	  fill: #4285F4;
	}
</style>
<defs>
    <g id="toolbar-image">
        <path d="m2.8911 0c-1.5969 0-2.877 1.2957-2.877 2.8911l-.014113 23.121c0 1.5955 1.2795 2.8911 2.875 2.8911h11.589c-1.2987-1.7263-2.0766-3.8668-2.0766-6.1935 0-5.7012 4.6214-10.323 10.323-10.323.13966 0 .27499.01467.41331.02016v-3.7359l-8.6714-8.6714zm10.115 2.1673 7.9496 7.9496h-7.9496z"/>
        <path d="m23.639 19.923h-1.8581v-1.8581h1.8581m0 9.2902h-1.8581v-5.5742h1.8581m-.92903-8.3612c-5.131 0-9.2903 4.1592-9.2903 9.2902 0 5.1311 4.1593 9.2903 9.2903 9.2903 5.1311 0 9.2903-4.1592 9.2903-9.2903 0-5.131-4.1593-9.2902-9.2903-9.2902z"/>
        <path d="m33.423 2.2c-.78508 0-1.4229.63785-1.4229 1.4229v14.221c0 .78506.63784 1.4229 1.4229 1.4229h10.31v-6.4c0-1.1782.95512-2.1333 2.1333-2.1333h11.733v-7.8229l-5.6896 5.6896v-4.9771c0-.78507-.63577-1.4229-1.4208-1.4229z"/>
        <path d="m46.72 11.8h15.36c1.0604 0 1.92.8596 1.92 1.92v15.36c0 1.0604-.85958 1.92-1.92 1.92h-15.36c-1.0604 0-1.92-.85958-1.92-1.92v-15.36c0-1.0604.85961-1.92 1.92-1.92zm2.88 1.92c-1.3255 0-2.4 1.0745-2.4 2.4s1.0745 2.4 2.4 2.4 2.4-1.0745 2.4-2.4-1.0745-2.4-2.4-2.4zm-2.88 13.44v1.92h15.36v-5.76l-2.88-2.88-5.76 5.76-2.88-2.88z"/>
        <path d="m67.556 1e-6h24.889c1.9637 0 3.5556 1.5919 3.5556 3.5556v24.889c0 1.9637-1.5918 3.5556-3.5556 3.5556h-24.889c-1.9637 0-3.5556-1.5918-3.5556-3.5556v-24.889c0-1.9637 1.5919-3.5556 3.5556-3.5556zm4.4444 21.333c-1.4728 0-2.6667 1.194-2.6667 2.6667 0 1.4727 1.1939 2.6667 2.6667 2.6667s2.6667-1.194 2.6667-2.6667c0-1.4727-1.1939-2.6667-2.6667-2.6667zm-2.6667-8.8889v3.5556c5.891 0 10.667 4.7756 10.667 10.667h3.5556c0-7.8548-6.3675-14.222-14.222-14.222zm0-7.1111-1.7e-5 3.5556c9.8183 0 17.778 7.9594 17.778 17.778h3.5556c0-11.782-9.5513-21.333-21.333-21.333z"/>
        <path d="m144.19 24.381c1.6838 0 3.0476-1.3652 3.0476-3.0476 0-1.6823-1.3638-3.0476-3.0476-3.0476-1.6823 0-3.0476 1.3653-3.0476 3.0476 0 1.6824 1.3653 3.0476 3.0476 3.0476zm9.1429-13.714c1.6823 0 3.0476 1.3653 3.0476 3.0476v15.238c0 1.6823-1.3653 3.0476-3.0476 3.0476h-18.286c-1.6823 0-3.0476-1.3653-3.0476-3.0476v-15.238c0-1.6823 1.3654-3.0476 3.0476-3.0476h1.5238v-3.0476c0-4.2072 3.4118-7.6191 7.6191-7.6191 4.2072 0 7.6191 3.4118 7.6191 7.6191v3.0476zm-9.142-7.6162c-2.5248 0-4.5714 2.0467-4.5714 4.5714v3.0476h9.1429v-3.0476c0-2.5247-2.0466-4.5714-4.5714-4.5714z"/>
        <path d="m123.2 8h-16v-3.2h16m-6.4 16h-9.6v-3.2h9.6m6.4-3.2h-16v-3.2h16m1.6-11.2h-19.2c-1.76 0-3.2 1.44-3.2 3.2v19.2c0 1.76 1.44 3.2 3.2 3.2h19.2c1.76 0 3.2-1.44 3.2-3.2v-19.2c0-1.76-1.44-3.2-3.2-3.2zm-25.6 6.4h-3.2v22.4c0 1.76 1.44 3.2 3.2 3.2h22.4v-3.2h-22.4z"/>
    </g>
</defs>
    <use id="state"    xlink:href="#toolbar-image"/>
    <use id="state-ac" xlink:href="#toolbar-image"/>
</svg>
