<svg version="1.1" viewBox="0 0 120 120" xmlns="http://www.w3.org/2000/svg">
    <path d="m120 60a60 60 0 0 1-60 60 60 60 0 0 1-60-60 60 60 0 0 1 60-60 60 60 0 0 1 60 60z" fill="#d6d6d6"/>
    <path d="m60 23.182c-11.012 0-18.793 4.9855-18.793 4.9855l-5.7528 19.56h49.091l-5.7526-19.56s-7.7813-4.9756-18.793-4.9855zm0 32.727c-11.159 0-27.05 2.1929-28.125 2.4287-4.2253 1.1358-7.6853 2.295-10.355 3.3237-4.162 1.4229-6.5199 2.4296-6.5199 2.4296h90s-2.358-1.0067-6.5197-2.4296c-2.6979-1.0395-6.1985-2.178-10.483-3.3237 0 0-16.443-2.4287-27.997-2.4287zm-18.409 12.273c-7.9077 0-14.318 6.4103-14.318 14.318 0 7.9074 6.4105 14.318 14.318 14.318 7.9077 0 14.318-6.4107 14.318-14.318 0-.6435-.04541-1.2964-.12762-1.9179 1.305-.288 2.718-.5166 4.2185-.5112 1.5005 0 2.9135.225 4.219.5112-.08262.6215-.12802 1.2744-.12802 1.9179 0 7.9074 6.4105 14.318 14.318 14.318 7.9077 0 14.318-6.4107 14.318-14.318 0-7.9078-6.4105-14.318-14.318-14.318-6.0296 0-11.185 3.6729-13.295 8.9487-1.3038-.3915-2.8673-.7668-5.1136-.7668-2.2463 0-3.8099.3735-5.1136.7668-2.1105-5.2758-7.2658-8.9487-13.295-8.9487zm0 4.0905c5.6484 0 10.227 4.5792 10.227 10.228s-4.5789 10.227-10.227 10.227c-5.6484 0-10.227-4.5788-10.227-10.227s4.5789-10.228 10.227-10.228zm36.818 0c5.6483 0 10.227 4.5792 10.227 10.228s-4.579 10.227-10.227 10.227c-5.6483 0-10.227-4.5788-10.227-10.227s4.579-10.228 10.227-10.228z" fill="#323232"/>
</svg>
