<svg xmlns="http://www.w3.org/2000/svg" xmlns:xlink="http://www.w3.org/1999/xlink" 
     width="378" height="36" viewBox="0 0 378.00424 36">
	<style>
		use:not(:target) {
		  display: none;
		}
		use {
		  fill: #595959;
		}
		use[id$="-ic"] {
		  fill: #cecece;
		}
		use[id$="-lw"] {
		  fill: #fff;
		  filter: drop-shadow(0px 0px 1.2px #000);
		}
	</style>
<defs>
<g id="g1">
  <path
     id="path81"
     d="m 16.000179,8.1160026 v 1.767825 H 5.3840122 L 10.250149,14.749949 9.0001189,15.999978 2.0000224,8.9999164 9.0001189,1.9998371 10.250149,3.2498761 5.3840122,8.1160026 Z"

     style="fill-opacity:1;stroke-width:0.17678262;stroke-linejoin:round" />
  <path
     id="path92"
     d="M 20.000224,8.115983 V 9.8838136 H 30.6164 L 25.75027,14.749945 27.000303,15.999978 34.000381,8.9998987 27.000303,1.9998019 25.75027,3.2498437 30.6164,8.115983 Z"

     style="fill-opacity:1;stroke-width:0.17678307;stroke-linejoin:round" />
  <path
     id="path103"
     d="M 52.000583,3.4098359 50.590567,1.99982 45.000506,7.5898827 39.410442,1.99982 l -1.410016,1.4100159 5.590064,5.5900629 -5.590064,5.5900632 1.410016,1.410016 5.590064,-5.590063 5.590061,5.590063 1.410016,-1.410016 -5.590063,-5.5900632 z"

     style="fill-opacity:1;stroke-width:1.00001121;stroke-linejoin:round" />
  <path
     id="path224"
     d="M 93.001043,16.499983 H 105.00118 V 14.785675 H 93.001043 M 105.00118,7.0712605 h -3.42861 V 1.9283349 h -5.142906 v 5.1429256 h -3.428621 l 6.000081,6.0001065 z"

     style="fill-opacity:1;stroke-width:0.17143086;stroke-linejoin:round" />
  <path
     id="path235"
     d="m 116.23322,5.684082 v 3.7682996 l 3.47424,2.0572924 0.56813,-0.946928 -2.93709,-1.7470789 V 5.684082 m -0.004,-3.6842614 c -2.59815,0 -4.85512,1.4162227 -6.05987,3.5162366 l -1.6734,-1.6741059 v 4.7895023 h 4.78953 l -2.02782,-2.0277949 c 0.89087,-1.8517099 2.78164,-3.1301338 4.97524,-3.1301338 3.05352,0 5.52639,2.4743281 5.52639,5.526355 0,3.0521181 -2.47287,5.5263931 -5.52639,5.5263931 -2.40584,0 -4.44617,-1.53921 -5.20513,-3.684262 h -1.54202 c 0.80831,2.970989 3.51404,5.157967 6.74368,5.157967 3.86846,0 7.00377,-3.133759 7.00377,-7.0000981 0,-3.8662342 -3.13531,-7.0000593 -7.00377,-7.0000593 z"

     style="fill-opacity:1;stroke-width:0.14737044;stroke-linejoin:round" />
  <path
     id="path246"
     d="m 135.00151,13.204698 4.63506,2.79528 -1.22627,-5.271807 4.0913,-3.5445613 -5.39332,-0.4635051 -2.10677,-4.9703036 -2.10676,4.9703036 -5.39332,0.4635051 4.09129,3.5445613 -1.22625,5.271807 z"

     style="fill-opacity:1;stroke-width:0.15000163;stroke-linejoin:round" />
  <path
     id="path257"
     d="m 157.20177,2.8998182 h -8.4001 v 2.8000297 h 8.4001 m 0.7,3.5000571 c -0.3871,0 -0.7,-0.3129031 -0.7,-0.7000078 0,-0.3871039 0.3129,-0.7000273 0.7,-0.7000273 0.38711,0 0.70001,0.3129234 0.70001,0.7000273 0,0.3871047 -0.3129,0.7000078 -0.70001,0.7000078 z m -2.10002,4.900052 h -5.60006 V 10.59992 h 5.60006 m 2.10002,-4.200065 h -9.80011 c -1.1592,0 -2.10002,0.9408024 -2.10002,2.1000422 v 4.2000448 h 2.80003 v 2.80003 h 8.4001 v -2.80003 h 2.80003 V 8.4998972 c 0,-1.1599328 -0.94012,-2.1000422 -2.10003,-2.1000422 z"

     style="fill-opacity:1;stroke-width:0.14000148;stroke-linejoin:round" />
  <path
     id="path270"
     d="m 172.55749,1.9998199 v 1.5555732 h 2.79225 l -7.64564,7.6456419 1.09669,1.09668 7.64564,-7.6456428 V 7.4443261 H 178.002 V 1.9998199 M 176.44643,14.444406 H 165.55741 V 3.5553931 h 5.44451 V 1.9998199 h -5.44451 c -0.86334,0 -1.55557,0.7000079 -1.55557,1.5555732 V 14.444406 c 0,0.855565 0.69223,1.555573 1.55557,1.555573 h 10.88902 c 0.85556,0 1.55557,-0.700008 1.55557,-1.555573 V 8.9998997 h -1.55557 z"

     style="fill-opacity:1;stroke-width:0.77778655;stroke-linejoin:round" />
  <path
     id="path292"
     d="m 211.90237,2.6998244 -4.20004,4.2000485 1.40001,1.4000159 4.90006,-4.9000562 V 2.6998244 m -7.00008,6.6500765 c -0.196,0 -0.35001,-0.1540015 -0.35001,-0.3500039 0,-0.1960021 0.15401,-0.3500037 0.35001,-0.3500037 0.196,0 0.35,0.1540016 0.35,0.3500037 0,0.1960024 -0.154,0.3500039 -0.35,0.3500039 z m -4.20005,5.2500601 c -0.77,0 -1.40001,-0.623007 -1.40001,-1.400015 0,-0.777009 0.63001,-1.400016 1.40001,-1.400016 0.77001,0 1.40002,0.623007 1.40002,1.400016 0,0.777008 -0.63001,1.400015 -1.40002,1.400015 z m 0,-8.4000962 c -0.77,0 -1.40001,-0.6230072 -1.40001,-1.4000161 0,-0.777009 0.63001,-1.4000161 1.40001,-1.4000161 0.77001,0 1.40002,0.6230071 1.40002,1.4000161 0,0.7770089 -0.63001,1.4000161 -1.40002,1.4000161 z m 2.54803,-0.2520029 c 0.161,-0.350004 0.252,-0.7350084 0.252,-1.1480132 0,-1.5470179 -1.25301,-2.8000324 -2.80003,-2.8000324 -1.54701,0 -2.80003,1.2530145 -2.80003,2.8000324 0,1.5470179 1.25302,2.8000323 2.80003,2.8000323 0.41301,0 0.79801,-0.091001 1.14802,-0.2520029 l 1.65201,1.6520189 -1.65201,1.652019 c -0.35001,-0.161002 -0.73501,-0.252003 -1.14802,-0.252003 -1.54701,0 -2.80003,1.253015 -2.80003,2.800033 0,1.547018 1.25302,2.800032 2.80003,2.800032 1.54702,0 2.80003,-1.253014 2.80003,-2.800032 0,-0.413006 -0.091,-0.79801 -0.252,-1.148014 l 1.65202,-1.652019 4.90005,4.900057 h 2.10003 v -0.700009 z"

     style="fill-opacity:1;stroke-width:0.70000809;stroke-linejoin:round" />
  <path
     id="path303"
     d="m 229.82077,14.727236 h -7.00008 V 5.8180454 h 7.00008 m 0,-1.2727415 h -7.00008 c -0.70001,0 -1.27275,0.5727337 -1.27275,1.2727415 v 8.9091906 c 0,0.700008 0.57274,1.272742 1.27275,1.272742 h 7.00008 c 0.69999,0 1.27273,-0.572734 1.27273,-1.272742 V 5.8180454 c 0,-0.7000078 -0.57274,-1.2727415 -1.27273,-1.2727415 z M 227.91166,1.999821 h -7.63646 c -0.7,0 -1.27274,0.5727335 -1.27274,1.2727415 v 8.9091905 h 1.27274 V 3.2725625 h 7.63646 z"

     style="fill-opacity:1;stroke-width:0.12727416;stroke-linejoin:round" />
  <path
     id="path314"
     d="m 247.6846,14.727236 h -8.9092 V 4.5453028 h 1.27274 v 1.9091127 h 6.36372 V 4.5453028 h 1.27274 M 243.23,3.2725607 c 0.35001,0 0.63637,0.2863675 0.63637,0.6363714 0,0.3500038 -0.28636,0.6363707 -0.63637,0.6363707 -0.35001,0 -0.63637,-0.2863669 -0.63637,-0.6363707 0,-0.3500039 0.28636,-0.6363714 0.63637,-0.6363714 z m 4.4546,0 h -2.66003 c -0.26728,-0.738187 -0.9673,-1.2727401 -1.79457,-1.2727401 -0.82728,0 -1.52729,0.5345531 -1.79457,1.2727401 h -2.66003 c -0.7,0 -1.27274,0.5727343 -1.27274,1.2727421 V 14.727236 c 0,0.700009 0.57274,1.272742 1.27274,1.272742 h 8.9092 c 0.7,0 1.27274,-0.572733 1.27274,-1.272742 V 4.5453028 c 0,-0.7000078 -0.57274,-1.2727421 -1.27274,-1.2727421 z"

     style="fill-opacity:1;stroke-width:0.63637084;stroke-linejoin:round" />
  <path
     id="path325"
     d="m 254.00285,1.9998213 h 5.00006 v 2.000022 h -3.00004 v 3.000033 h -2.00002 z m 9.0001,1e-5 h 5.00006 v 5.000045 h -2.00002 v -3.000023 h -3.00004 z m 3.00004,9.0000907 h 2.00002 v 5.000055 h -5.00006 v -2.000022 h 3.00004 z m -7.00008,3.000033 v 2.000022 h -5.00006 v -5.000055 h 2.00002 v 3.000033 z"

     style="fill-opacity:1;stroke-width:1.00001121;stroke-linejoin:round" />
  <path
     id="path347"
     d="m 282.00888,10.804948 h -0.63236 l -0.22413,-0.216126 c 0.78446,-0.9125316 1.25672,-2.0972221 1.25672,-3.3859737 0,-2.8736757 -2.32935,-5.203034 -5.20303,-5.203034 -2.87367,0 -5.20303,2.3293583 -5.20303,5.203034 0,2.8736757 2.32936,5.2030337 5.20303,5.2030337 1.28876,0 2.47344,-0.472276 3.38598,-1.256733 l 0.21612,0.224131 v 0.632369 l 4.00234,3.994329 1.19269,-1.192696 z m -4.8028,0 c -1.99316,0 -3.6021,-1.608937 -3.6021,-3.6020997 0,-1.9931623 1.60894,-3.6021005 3.6021,-3.6021005 1.99317,0 3.6021,1.6089382 3.6021,3.6021005 0,1.9931627 -1.60893,3.6020997 -3.6021,3.6020997 z m -2.00117,-4.0023332 h 4.00234 v 0.8004668 h -4.00234 z"

     style="fill-opacity:1;stroke-width:1.06728637;stroke-linejoin:miter" />
  <path
     id="path369"
     d="m 300.00908,10.804948 3.99433,4.002334 -1.1927,1.192696 -4.00233,-3.994329 V 11.37328 l -0.21612,-0.224131 c -0.91254,0.784457 -2.09722,1.256733 -3.38598,1.256733 -2.87367,0 -5.20303,-2.329359 -5.20303,-5.2030339 0,-2.8736757 2.32936,-5.203034 5.20303,-5.203034 2.87368,0 5.20303,2.3293583 5.20303,5.203034 0,1.2887516 -0.47227,2.4734418 -1.25673,3.3859739 l 0.22414,0.216126 z m -4.8028,0 c 1.99317,0 3.6021,-1.6089374 3.6021,-3.6020999 0,-1.9931623 -1.60893,-3.6021005 -3.6021,-3.6021005 -1.99316,0 -3.6021,1.6089382 -3.6021,3.6021005 0,1.9931625 1.60894,3.6020999 3.6021,3.6020999 z m 2.00117,-3.2018666 h -1.60094 v 1.6009337 h -0.80046 V 7.6030814 h -1.60094 V 6.8026146 h 1.60094 V 5.2016812 h 0.80046 v 1.6009334 h 1.60094 z"
     style="fill-opacity:1;stroke-width:1.06728637;stroke-linejoin:miter" />
  <path
     id="path380"
     d="m 314.95804,13.090854 c -2.25685,0 -4.09093,-1.834111 -4.09093,-4.0909559 0,-0.6886435 0.17045,-1.3431962 0.47728,-1.9091111 l -0.99548,-0.9954662 c -0.53181,0.8386458 -0.84544,1.8341109 -0.84544,2.9045773 0,3.0136709 2.44091,5.4546079 5.45457,5.4546079 v 2.045477 l 2.72727,-2.727303 -2.72727,-2.727303 m 0,-7.5000847 V 1.4998146 l -2.72729,2.7273035 2.72729,2.7273033 V 4.9089439 c 2.25682,0 4.09091,1.8341115 4.09091,4.0909542 0,0.6886441 -0.17046,1.3431979 -0.47728,1.9091139 l 0.99547,0.995464 c 0.53181,-0.838645 0.84545,-1.834112 0.84545,-2.9045779 0,-3.0136693 -2.44092,-5.4546058 -5.45455,-5.4546058 z"
     style="fill-opacity:1;stroke-width:0.68182307;stroke-linejoin:round" />
  <path
     id="path391"
     d="m 327.96515,12.077051 c 1.08326,0 1.96144,0.878159 1.96144,1.96146 0,1.083303 -0.87818,1.961462 -1.96144,1.961462 -1.0833,0 -1.96148,-0.878159 -1.96148,-1.961462 0,-1.083301 0.87818,-1.96146 1.96148,-1.96146 z M 326.00367,1.999816 c 7.72888,0 14.00016,6.2712783 14.00016,14.000157 h -2.54631 c 0,-6.3252632 -5.1286,-11.4538559 -11.45385,-11.4538559 z m 0,5.0926018 c 4.92166,0 8.90755,3.9859062 8.90755,8.9075552 h -2.54629 c 0,-3.509036 -2.85222,-6.3612551 -6.36126,-6.3612551 z"
     style="fill-opacity:1;stroke-width:1.19966781;stroke-linejoin:miter" />
  <path
     id="path402"
     d="M 354.89287,7.6665501 V 4.94432 c 0,-0.4293382 -0.34845,-0.7777866 -0.77779,-0.7777866 h -9.33343 c -0.42935,0 -0.77779,0.3484484 -0.77779,0.7777866 v 7.777843 c 0,0.429338 0.34844,0.777787 0.77779,0.777787 h 9.33343 c 0.42934,0 0.77779,-0.348449 0.77779,-0.777787 V 9.9999097 l 3.11115,3.1111463 V 4.5554267 Z"
     style="fill-opacity:1;stroke-width:0.15555732;stroke-linejoin:round" />
  <path
     id="path413"
     d="m 263.00295,29.000123 h 5.00006 v 2.000023 h -3.00004 v 3.000033 h -2.00002 z m -9.0001,0 h 5.00005 v 5.000056 h -2.00002 v -3.000033 h -3.00003 z m 3.00003,-9.000101 h 2.00002 v 5.000056 h -5.00005 v -2.000022 h 3.00003 z m 11.00013,3.000034 v 2.000022 h -5.00006 v -5.000056 h 2.00002 v 3.000034 z"
     style="fill-opacity:1;stroke-width:1.00001121;stroke-linejoin:round" />
  <path
     id="path424"
     d="m 67.828388,3.8919068 2.00422,-2.1171797 0.168177,6.1382617 -6.138199,0.1682381 2.746167,-2.9009453 C 65.635478,4.2503581 64.321128,3.6808881 62.86548,3.7207847 c -2.902502,0.07954 -5.196705,2.5030466 -5.117158,5.4055677 0.07953,2.9024886 2.503066,5.1967226 5.405574,5.1171496 2.288657,-0.06275 4.195333,-1.58052 4.85829,-3.643376 l 1.823962,-0.04999 c -0.697672,3.046717 -3.363386,5.357499 -6.634197,5.447151 -3.875862,0.106238 -7.092408,-2.947243 -7.198626,-6.8231236 -0.106224,-3.8758012 2.938237,-7.1009486 6.814099,-7.2071729 1.937928,-0.053115 3.704611,0.6882281 5.010982,1.924899 z"
     style="fill-opacity:1;stroke-width:0.17544466;stroke-linejoin:round" />
  <path
     style="fill-opacity:1;stroke-width:0.77778649;stroke-linejoin:round"
     d="m 183.55761,1.9998204 c -0.85556,0 -1.55557,0.6922319 -1.55557,1.555573 V 14.444404 c 0,0.855564 0.70001,1.555573 1.55557,1.555573 h 5.44451 v -1.555573 h -5.44451 V 3.5553934 h 10.88901 v 5.4445055 h 1.55558 V 3.5553934 c 0,-0.8633411 -0.70001,-1.555573 -1.55558,-1.555573 z m 8.44476,7.0000785 V 12.00015 h -3.00025 v 0.999577 h 3.00025 v 3.00025 h 0.99958 v -3.00025 h 3.00025 V 12.00015 h -3.00025 V 8.9998989 Z"
     id="path270-4"
 />
  <path
     id="path615"
     d="m 369.00414,11.677141 -2.63413,1.589018 0.69651,-2.996735 -2.32543,-2.0146225 3.06603,-0.2632026 1.19702,-2.8252532 1.19702,2.8252532 3.06603,0.2632026 -2.32543,2.0146225 0.6965,2.996735 m 4.36596,-5.8954882 -5.03376,-0.431912 -1.96632,-4.6389456 -1.96632,4.6389456 -5.03376,0.431912 3.81854,3.3089592 -1.14451,4.920355 4.32605,-2.60963 4.32605,2.60963 -1.14452,-4.920355 z"
     style="fill-opacity:1;stroke-width:0.1400016;stroke-linejoin:round" />
  <path
     id="path626"
     d="m 369.00415,30.991244 4.32604,2.608929 -1.14451,-4.920354 3.81854,-3.308259 -5.03376,-0.432605 -1.96631,-4.638951 -1.96633,4.638951 -5.03376,0.432605 3.81855,3.308259 -1.14452,4.920354 z"
     style="fill:#4485f2;fill-opacity:1;stroke-width:0.14000155;stroke-linejoin:round" />
  <path
     id="path81-6"
     d="m 16.000179,26.116205 v 1.767826 H 5.384012 l 4.866136,4.866118 -1.2500293,1.25003 -7.0000963,-7.000061 7.0000963,-7.000078 1.2500293,1.250038 -4.866136,4.866127 z"
     style="fill-opacity:0.39215687;stroke-width:0.17678262;stroke-linejoin:round" />
  <path
     id="path92-5"
     d="m 20.000224,26.116185 v 1.76783 H 30.6164 l -4.86613,4.866131 1.250033,1.250033 7.000078,-7.000079 -7.000078,-7.000096 -1.250033,1.250041 4.86613,4.86614 z"
     style="fill-opacity:0.39215687;stroke-width:0.17678306;stroke-linejoin:round" />
  <path
     id="path103-7"
     d="m 52.000583,21.410038 -1.410017,-1.410016 -5.590061,5.590062 -5.590063,-5.590062 -1.410016,1.410016 5.590062,5.590062 -5.590062,5.590064 1.410016,1.410015 5.590063,-5.590062 5.590061,5.590062 1.410017,-1.410015 L 46.41052,27.0001 Z"
     style="fill-opacity:0.39215687;stroke-width:1.00001121;stroke-linejoin:round" />
  <path
     id="path424-5"
     d="m 67.828388,21.892109 2.00422,-2.11718 0.168176,6.138262 -6.138198,0.168238 2.746168,-2.900945 c -0.973277,-0.929924 -2.287626,-1.499393 -3.743274,-1.459497 -2.902502,0.07954 -5.196705,2.503046 -5.117159,5.405567 0.07953,2.90249 2.503067,5.196724 5.405575,5.117151 2.288657,-0.06275 4.195333,-1.580521 4.858291,-3.643377 l 1.823961,-0.04999 c -0.697672,3.046716 -3.363386,5.357498 -6.634196,5.447151 -3.875863,0.106238 -7.09241,-2.947243 -7.198628,-6.823125 -0.106223,-3.875801 2.938237,-7.100948 6.814099,-7.207172 1.937929,-0.05311 3.704612,0.688228 5.010984,1.924899 z"
     style="fill-opacity:0.39215687;stroke-width:0.17544466;stroke-linejoin:round" />
  <path
     id="path5136"
     d="M 85.741205,14.899327 V 8.0654226 L 81.050913,3.2634724 76.36062,8.0654226 V 14.899327 Z M 81.050913,0.99980947 88.800996,8.9344178 H 87.304635 V 16.499983 H 74.79719 l 8e-6,-7.5655652 h -1.496376 z"
     style="fill-opacity:1;stroke-width:1.05461955;stroke-linejoin:miter"/>
</g>
</defs>
    <use id="state" xlink:href="#g1"/>
    <use id="state-ic" xlink:href="#g1"/>
	<use id="state-lw" xlink:href="#g1"/>
</svg>