<svg xmlns="http://www.w3.org/2000/svg" xmlns:xlink="http://www.w3.org/1999/xlink" 
     width="378" height="36" viewBox="0 0 378 36">
	<style>
		use:not(:target) {
		  display: none;
		}
		use {
		  fill: #595959;
		}
		use[id$="-ic"] {
		  fill: #cecece;
		}
	</style>
<defs>
<g id="g1">
 <path d="m16 8.12v1.77h-10.6l4.87 4.87-1.25 1.25-7-7 7-7 1.25 1.25-4.87 4.87z"/>
 <path d="m20 8.12v1.77h10.6l-4.87 4.87 1.25 1.25 7-7-7-7-1.25 1.25 4.87 4.87z"/>
 <path d="m52 3.41-1.41-1.41-5.59 5.59-5.59-5.59-1.41 1.41 5.59 5.59-5.59 5.59 1.41 1.41 5.59-5.59 5.59 5.59 1.41-1.41-5.59-5.59z"/>
 <path d="m93 17h12v-2h-12m12-8h-3v-5h-6v5h-3l6 6z"/>
 <path d="m116 5.68v3.77l3.47 2.06.568-.947-2.94-1.75v-3.13m-.004-3.68c-2.6 0-4.86 1.42-6.06 3.52l-1.67-1.67v4.79h4.79l-2.03-2.03c.891-1.85 2.78-3.13 4.98-3.13 3.05 0 5.53 2.47 5.53 5.53 0 3.05-2.47 5.53-5.53 5.53-2.41 0-4.45-1.54-5.21-3.68h-1.54c.808 2.97 3.51 5.16 6.74 5.16 3.87 0 7-3.13 7-7 0-3.87-3.14-7-7-7z"/>
 <path d="m135 13.2 4.64 2.8-1.23-5.27 4.09-3.54-5.39-.464-2.11-4.97-2.11 4.97-5.39.464 4.09 3.54-1.23 5.27z"/>
 <path d="m157 3h-8v2h8m1 3.7c-.387 0-.7-.313-.7-.7 0-.387.313-.7.7-.7.387 0 .7.313.7.7 0 .387-.313.7-.7.7zm-2 6.3h-6v-4h6m2-5h-10c-1.16 0-2 1.34-2 2.5v4.5h3v3h8v-3h3v-4.5c0-1.16-.84-2.5-2-2.5z"/>
 <path d="m173 2v1.56h2.79l-7.65 7.65 1.1 1.1 7.65-7.65v2.79h1.56v-5.44m-1.56 12.4h-10.9v-10.9h5.44v-1.56h-5.44c-.863 0-1.56.7-1.56 1.56v10.9c0 .856.692 1.56 1.56 1.56h10.9c.856 0 1.56-.7 1.56-1.56v-5.44h-1.56z"/>
 <path d="m212 2.7-4.2 4.2 1.4 1.4 4.9-4.9v-.7m-7 6.65c-.196 0-.35-.154-.35-.35 0-.196.154-.35.35-.35s.35.154.35.35c0 .196-.154.35-.35.35zm-4.2 5.25c-.77 0-1.4-.623-1.4-1.4 0-.777.63-1.4 1.4-1.4.77 0 1.4.623 1.4 1.4 0 .777-.63 1.4-1.4 1.4zm0-8.4c-.77 0-1.4-.623-1.4-1.4 0-.777.63-1.4 1.4-1.4.77 0 1.4.623 1.4 1.4 0 .777-.63 1.4-1.4 1.4zm2.55-.252c.161-.35.252-.735.252-1.15 0-1.55-1.25-2.8-2.8-2.8-1.55 0-2.8 1.25-2.8 2.8s1.25 2.8 2.8 2.8c.413 0 .798-.091 1.15-.252l1.65 1.65-1.65 1.65c-.35-.161-.735-.252-1.15-.252-1.55 0-2.8 1.25-2.8 2.8s1.25 2.8 2.8 2.8c1.55 0 2.8-1.25 2.8-2.8 0-.413-.091-.798-.252-1.15l1.65-1.65 4.9 4.9h2.1v-.7z"/>
 <path d="m230 14.7h-7v-8.91h7m0-1.27h-7c-.7 0-1.27.573-1.27 1.27v8.91c0 .7.573 1.27 1.27 1.27h7c.7 0 1.27-.573 1.27-1.27v-8.91c0-.7-.573-1.27-1.27-1.27zm-1.91-2.55h-7.64c-.7 0-1.27.573-1.27 1.27v8.91h1.27v-8.91h7.64z"/>
 <path d="m248 14.7h-8.91v-10.2h1.27v1.91h6.36v-1.91h1.27m-4.45-1.27c.35 0 .636.286.636.636 0 .35-.286.636-.636.636s-.636-.286-.636-.636c0-.35.286-.636.636-.636zm4.45 0h-2.66c-.267-.738-.967-1.27-1.79-1.27-.827 0-1.53.535-1.79 1.27h-2.66c-.7 0-1.27.573-1.27 1.27v10.2c0 .7.573 1.27 1.27 1.27h8.91c.7 0 1.27-.573 1.27-1.27v-10.2c0-.7-.573-1.27-1.27-1.27z"/>
 <path d="m254 2h5v2h-3v3h-2zm9 1e-5h5v5h-2v-3h-3zm3 9h2v5h-5v-2h3zm-7 3v2h-5v-5h2v3z"/>
 <path d="m282 10.8h-.632l-.224-.216c.784-.913 1.26-2.1 1.26-3.39 0-2.87-2.33-5.2-5.2-5.2-2.87 0-5.2 2.33-5.2 5.2s2.33 5.2 5.2 5.2c1.29 0 2.47-.472 3.39-1.26l.216.224v.632l4 3.99 1.19-1.19zm-4.8 0c-1.99 0-3.6-1.61-3.6-3.6 0-1.99 1.61-3.6 3.6-3.6 1.99 0 3.6 1.61 3.6 3.6 0 1.99-1.61 3.6-3.6 3.6zm-2-4h4v.8h-4z"/>
 <path d="m300 10.8 3.99 4-1.19 1.19-4-3.99v-.632l-.216-.224c-.913.784-2.1 1.26-3.39 1.26-2.87 0-5.2-2.33-5.2-5.2 0-2.87 2.33-5.2 5.2-5.2 2.87 0 5.2 2.33 5.2 5.2 0 1.29-.472 2.47-1.26 3.39l.224.216zm-4.8 0c1.99 0 3.6-1.61 3.6-3.6 0-1.99-1.61-3.6-3.6-3.6-1.99 0-3.6 1.61-3.6 3.6 0 1.99 1.61 3.6 3.6 3.6zm2-3.2h-1.6v1.6h-.8v-1.6h-1.6v-.8h1.6v-1.6h.8v1.6h1.6z"/>
 <path d="m315 13.1c-2.26 0-4.09-1.83-4.09-4.09 0-.689.17-1.34.477-1.91l-.995-.995c-.532.839-.845 1.83-.845 2.9 0 3.01 2.44 5.45 5.45 5.45v2.05l2.73-2.73-2.73-2.73m0-7.5v-2.05l-2.73 2.73 2.73 2.73v-2.05c2.26 0 4.09 1.83 4.09 4.09 0 .689-.17 1.34-.477 1.91l.995.995c.532-.839.845-1.83.845-2.9 0-3.01-2.44-5.45-5.45-5.45z"/>
 <path d="m328 12.1c1.08 0 1.96.878 1.96 1.96 0 1.08-.878 1.96-1.96 1.96-1.08 0-1.96-.878-1.96-1.96 0-1.08.878-1.96 1.96-1.96zm-1.96-10.1c7.73 0 14 6.27 14 14h-2.55c0-6.33-5.13-11.5-11.5-11.5zm0 5.09c4.92 0 8.91 3.99 8.91 8.91h-2.55c0-3.51-2.85-6.36-6.36-6.36z"/>
 <path d="m355 7.67v-2.72c0-.429-.348-.778-.778-.778h-9.33c-.429 0-.778.348-.778.778v7.78c0 .429.348.778.778.778h9.33c.429 0 .778-.348.778-.778v-2.72l3.11 3.11v-8.56z"/>
 <path d="m263 29h5v2h-3v3h-2zm-9 0h5v5h-2v-3h-3zm3-9h2v5h-5v-2h3zm11 3v2h-5v-5h2v3z"/>
 <path d="m67.8 3.89 2-2.12.168 6.14-6.14.168 2.75-2.9c-.973-.93-2.29-1.5-3.74-1.46-2.9.0795-5.2 2.5-5.12 5.41.0795 2.9 2.5 5.2 5.41 5.12 2.29-.0628 4.2-1.58 4.86-3.64l1.82-.05c-.698 3.05-3.36 5.36-6.63 5.45-3.88.106-7.09-2.95-7.2-6.82-.106-3.88 2.94-7.1 6.81-7.21 1.94-.0531 3.7.688 5.01 1.92z"/>
 <path d="m184 2c-.856 0-1.56.692-1.56 1.56v10.9c0 .856.7 1.56 1.56 1.56h5.44v-1.56h-5.44v-10.9h10.9v5.44h1.56v-5.44c0-.863-.7-1.56-1.56-1.56zm8.44 7v3h-3v1h3v3h1v-3h3v-1h-3v-3z"/>
 <path d="m369 11.7-2.63 1.59.697-3-2.33-2.01 3.07-.263 1.2-2.83 1.2 2.83 3.07.263-2.33 2.01.696 3m4.37-5.9-5.03-.432-1.97-4.64-1.97 4.64-5.03.432 3.82 3.31-1.14 4.92 4.33-2.61 4.33 2.61-1.14-4.92z"/>
 <path d="m369 31 4.33 2.61-1.14-4.92 3.82-3.31-5.03-.433-1.97-4.64-1.97 4.64-5.03.433 3.82 3.31-1.14 4.92z" fill="#4485f2"/>
 <path d="m85 15v-8l-4-4-4 4v8h4zm-4-14 9 9h-3v7h-12v-7h-3z"/></g>
</defs>
    <use id="state" xlink:href="#g1"/>
    <use id="state-ic" xlink:href="#g1"/>
</svg>